PathFileType	4	(X/Y/Z)	D:\TRACE\spot_10-12-23\spot_arm_motion_3_3-platform.trc
DataRate	CameraRate	NumFrames	NumMarkers	Units	OrigDataRate	OrigDataStartFrame	OrigNumFrames
100.00	100.00	      55	5	mm	100.00	5251	      7000
Frame#	Time	Left_Front			Right_Front			Left_Aft			Right_Aft			Post			
		X1	Y1	Z1	X2	Y2	Z2	X3	Y3	Z3	X4	Y4	Z4	X5	Y5	Z5	

5251	52.500	-805.51263	-0.68869	-643.26086	767.12305	3.67695	-636.33020	-722.44617	9.98020	494.79349	694.88135	15.46795	580.75568	-22.52985	733.42151	-969.39795	
5252	52.510	-805.49835	-0.64968	-643.22858	767.23041	3.65008	-636.33124	-722.36084	10.04727	494.74335	694.93835	15.52601	580.73065	-22.47965	733.43854	-969.41943	
5253	52.520	-805.46344	-0.66891	-643.27039	767.34314	3.61573	-636.26550	-722.31635	10.04198	494.74973	695.03430	15.52961	580.74768	-22.44094	733.35553	-969.41791	
5254	52.530	-805.38422	-0.74534	-643.26630	767.30823	3.58541	-636.37073	-722.28137	10.06876	494.71582	695.05695	15.55909	580.74182	-22.90582	733.35822	-969.47589	
5255	52.540	-805.37933	-0.74438	-643.22485	767.41180	3.49515	-636.38104	-722.18610	10.08500	494.73590	695.12085	15.60754	580.75073	-22.72594	733.24640	-969.35645	
5256	52.550	-805.34308	-0.79698	-643.27881	767.49066	3.45135	-636.40265	-722.18097	10.13707	494.71606	695.13116	15.64859	580.74164	-22.32480	733.11194	-969.17450	
5257	52.560	-805.33020	-0.77620	-643.27405	767.58856	3.39717	-636.37494	-722.11298	10.18618	494.67438	695.19495	15.71475	580.74847	-22.33393	733.08588	-969.10443	
5258	52.570	-805.27106	-0.83901	-643.28168	767.68829	3.32949	-636.38416	-722.07709	10.20378	494.70584	695.24292	15.79583	580.75092	-22.27829	733.05212	-969.10242	
5259	52.580	-805.23688	-0.97143	-643.30408	767.68567	3.27749	-636.39276	-722.00446	10.22969	494.69821	695.25708	15.86026	580.71924	-22.26467	732.99365	-969.14154	
5260	52.590	-805.17017	-1.05179	-643.31091	767.73511	3.22203	-636.41302	-721.98822	10.29337	494.63010	695.29565	15.91422	580.72375	-22.19756	732.89056	-969.29254	
5261	52.600	-805.15826	-1.14133	-643.31958	767.74957	3.17680	-636.42163	-721.97467	10.31436	494.60001	695.32568	16.00399	580.69287	-22.11793	732.76990	-969.49585	
5262	52.610	-805.10736	-1.24753	-643.34692	767.78589	3.15442	-636.41766	-721.99432	10.35849	494.58127	695.37305	16.01393	580.66174	-22.08257	732.65210	-969.71875	
5263	52.620	-805.04803	-1.29881	-643.36389	767.85107	3.10250	-636.44318	-721.96008	10.43664	494.56552	695.37097	16.09846	580.66779	-22.09291	732.55231	-969.94580	
5264	52.630	-804.98608	-1.39435	-643.37604	767.88629	3.07253	-636.44092	-721.94183	10.47429	494.51538	695.41235	16.13516	580.65558	-22.03742	732.49432	-970.13007	
5265	52.640	-804.96594	-1.44677	-643.34528	767.93024	3.01529	-636.46387	-721.88257	10.51729	494.49826	695.48486	16.20868	580.62775	-21.96320	732.47559	-970.21936	
5266	52.650	-804.85815	-1.66485	-643.36816	767.94226	2.95268	-636.48492	-721.82019	10.55673	494.50766	695.46405	16.24295	580.61639	-21.92109	732.36133	-970.43134	
5267	52.660	-804.79205	-1.71922	-643.44012	768.00439	2.87588	-636.52423	-721.81586	10.58752	494.49286	695.54132	16.30433	580.57953	-21.90676	732.24487	-970.57599	
5268	52.670	-804.84058	-1.75711	-643.44788	768.01465	2.83928	-636.54504	-721.78748	10.66947	494.50613	695.58698	16.39387	580.60449	-21.81166	732.07709	-970.63867	
5269	52.680	-804.77051	-1.82998	-643.43524	768.08026	2.73707	-636.60992	-721.76056	10.76646	494.45477	695.62299	16.46144	580.57458	-21.73332	731.85400	-970.65100	
5270	52.690	-804.62305	-2.06379	-643.52478	768.13885	2.67799	-636.57520	-721.72705	10.80831	494.43896	695.64258	16.52548	580.58051	-21.73660	731.59088	-970.62402	
5271	52.700	-804.56134	-2.24241	-643.48853	768.16101	2.61798	-636.60089	-721.70605	10.91007	494.43369	695.69092	16.57114	580.55359	-21.65851	731.30499	-970.55640	
5272	52.710	-804.47223	-2.38532	-643.53998	768.13904	2.48516	-636.70776	-721.66486	11.00916	494.46173	695.68646	16.69163	580.51556	-21.68478	731.10303	-970.53839	
5273	52.720	-804.53784	-2.45626	-643.50964	768.09454	2.36307	-636.77167	-721.52643	11.07239	494.45135	695.70837	16.73833	580.52582	-21.65399	730.97815	-970.57599	
5274	52.730	-804.50897	-2.50168	-643.53387	768.16754	2.20434	-636.77930	-721.49341	11.17592	494.41708	695.77838	16.84554	580.49823	-21.69843	730.94922	-970.65820	
5275	52.740	-804.39691	-2.62775	-643.60889	768.17163	2.14516	-636.81238	-721.44934	11.29688	494.38327	695.81537	16.93959	580.46240	-21.73386	730.93134	-970.78961	
5276	52.750	-804.42291	-2.74077	-643.62360	768.17651	1.98550	-636.86786	-721.41840	11.35432	494.37750	695.86853	17.01119	580.43994	-21.58821	730.80780	-970.97827	
5277	52.760	-804.33374	-2.93542	-643.67200	768.11530	1.89199	-636.92865	-721.34332	11.41988	494.35544	695.84558	17.07889	580.41138	-21.28326	730.57642	-971.21863	
5278	52.770	-804.39893	-2.96178	-643.65759	768.11914	1.82688	-636.94464	-721.32190	11.52083	494.34067	695.86371	17.15357	580.38440	-21.27388	730.49945	-971.48090	
5279	52.780	-804.38892	-3.00986	-643.68945	768.11853	1.68017	-636.99695	-721.26202	11.61844	494.28403	695.92126	17.24401	580.32666	-21.14725	730.35242	-971.77521	
5280	52.790	-804.33057	-2.95860	-643.80524	768.12122	1.57929	-637.00305	-721.23328	11.68663	494.28247	695.94849	17.31333	580.32257	-21.20310	730.30548	-971.98370	
5281	52.800	-804.23199	-3.20446	-643.76013	768.15900	1.39135	-637.06165	-721.19324	11.77496	494.25659	696.00806	17.40492	580.29028	-21.35221	730.23907	-972.21741	
5282	52.810	-804.25305	-3.16384	-643.84247	768.14874	1.24336	-637.06702	-721.20642	11.83462	494.20917	695.98395	17.44737	580.26550	-21.40962	730.13666	-972.45056	
5283	52.820	-804.19653	-3.30964	-643.80487	768.24274	1.10366	-637.10272	-721.15863	11.89067	494.21103	695.99188	17.50267	580.22601	-21.28243	730.01208	-972.60547	
5284	52.830	-804.25012	-3.39757	-643.80023	768.28210	1.01300	-637.09650	-721.16077	11.95710	494.17517	696.03510	17.58287	580.22504	-21.13863	729.81708	-972.68268	
5285	52.840	-804.09613	-3.53478	-643.82867	768.24408	0.88411	-637.16388	-721.07025	12.02491	494.21408	696.09888	17.65171	580.21625	-21.09028	729.64838	-972.80499	
5286	52.850	-804.03290	-3.63342	-643.86835	768.37775	0.78530	-637.05981	-721.08679	12.10130	494.23099	696.14862	17.74283	580.15698	-21.06969	729.48505	-972.78381	
5287	52.860	-803.94122	-3.72572	-643.93976	768.42505	0.69468	-637.04578	-721.02631	12.15746	494.15073	696.19098	17.79763	580.12988	-20.94720	729.22900	-972.83191	
5288	52.870	-803.89520	-3.84376	-643.99792	768.40625	0.62246	-637.04919	-721.05017	12.25894	494.08270	696.22443	17.87589	580.07281	-20.82422	729.00311	-972.85291	
5289	52.880	-803.85443	-3.94528	-643.98907	768.47400	0.53252	-637.02667	-720.96613	12.37420	494.04706	696.24353	17.94247	580.04401	-20.85577	728.76764	-972.88623	
5290	52.890	-803.79297	-4.02180	-644.02960	768.44324	0.42199	-637.13849	-721.03223	12.33681	494.00912	696.25592	17.99636	579.99524	-20.89405	728.61316	-972.92389	
5291	52.900	-803.72845	-4.17501	-644.07642	768.51721	0.34074	-637.14355	-720.97015	12.38818	493.99533	696.30646	18.11878	579.97601	-20.89604	728.43311	-973.09155	
5292	52.910	-803.56403	-4.32076	-644.12042	768.51923	0.29807	-637.16394	-720.97437	12.45976	493.98645	696.36151	18.19393	579.91797	-20.85651	728.32788	-973.24774	
5293	52.920	-803.54443	-4.42330	-644.10449	768.71582	0.21654	-637.07697	-720.90643	12.44893	493.95300	696.38269	18.22788	579.88367	-20.85084	728.20642	-973.47955	
5294	52.930	-803.43207	-4.54602	-644.14880	768.78546	0.11173	-637.11517	-720.78949	12.54070	493.93875	696.42249	18.32304	579.88165	-59.22374	697.33588	-994.27551	
5295	52.940	-803.44086	-4.55527	-644.19989	768.84039	0.09439	-637.05438	-720.77533	12.55204	493.93613	696.41339	18.39791	579.87512	-72.30717	686.76508	-1001.51794	
5296	52.950	-803.44836	-4.62546	-644.10986	768.74243	0.05119	-637.21063	-720.78125	12.63655	493.92801	696.50586	18.48729	579.85461	-20.90390	727.90295	-974.17676	
5297	52.960	-803.35938	-4.76146	-644.19281	768.78296	-0.01416	-637.23901	-720.72540	12.73830	493.88330	696.51923	18.55435	579.83325	-20.87566	727.80927	-974.22357	
5298	52.970	-803.35413	-4.85152	-644.21765	768.84882	-0.08402	-637.24646	-720.61230	12.77882	493.89142	696.62982	18.64575	579.79987	-20.78359	727.72736	-974.32190	
5299	52.980	-803.32800	-4.91523	-644.21136	768.88318	-0.09472	-637.26227	-720.53131	12.79288	493.91916	696.70593	18.73585	579.79425	-20.70343	727.61932	-974.43066	
5300	52.990	-803.48871	-4.88963	-644.11090	768.93341	-0.14827	-637.26740	-720.51129	12.88145	493.84506	696.80878	18.82017	579.79297	-20.61631	727.54309	-974.47675	
5301	53.000	-803.48077	-4.86535	-644.11609	768.97748	-0.18419	-637.29010	-720.43652	12.84744	493.87857	696.87732	18.90072	579.76868	-20.53879	727.52057	-974.47980	
5302	53.010	-803.20667	-5.05179	-644.22552	768.99365	-0.20936	-637.29395	-720.31543	12.82763	493.84277	696.88312	18.91375	579.76343	-20.60716	727.37274	-974.53662	
5303	53.020	-803.40857	-5.01953	-644.11121	769.05225	-0.25018	-637.30377	-720.26117	12.90495	493.82736	696.92383	18.97454	579.73505	-20.53853	727.27448	-974.53308	
5304	53.030	-803.30090	-5.09156	-644.14014	769.13049	-0.30042	-637.32886	-720.22485	12.89798	493.81372	696.96564	19.00757	579.69629	-20.44243	727.23322	-974.55426	
5305	53.040	-803.24512	-5.16687	-644.12878	769.17334	-0.36079	-637.33502	-720.08173	12.86330	493.53903	697.01648	19.02943	579.69214	-20.42647	727.17615	-974.53809	
